<svg width="18" height="28" viewBox="0 0 18 28" fill="none" xmlns="http://www.w3.org/2000/svg">
<path d="M6 24.5L9 24.5L9 18.5L6 18.5L6 24.5Z" fill="#0F0092"/>
<path d="M6 9.5L9 9.5L9 3.5L6 3.5L6 9.5Z" fill="#0F0092"/>
<path d="M3 6.5L6 6.5L6 0.500001L3 0.500001L3 6.5Z" fill="#0F0092"/>
<path d="M15 15.5L18 15.5L18 12.5L15 12.5L15 15.5Z" fill="#0F0092"/>
<path d="M0 27.5L3 27.5L3 24.5L-2.62268e-07 24.5L0 27.5Z" fill="#0F0092"/>
<path d="M-2.09815e-06 3.5L3 3.5L3 0.500001L-2.36041e-06 0.500002L-2.09815e-06 3.5Z" fill="#0F0092"/>
<path d="M3 27.5L6 27.5L6 21.5L3 21.5L3 27.5Z" fill="#0F0092"/>
<path d="M9 12.5L12 12.5L12 6.5L9 6.5L9 12.5Z" fill="#0F0092"/>
<path d="M9 21.5L12 21.5L12 15.5L9 15.5L9 21.5Z" fill="#0F0092"/>
<path d="M12 18.5L15 18.5L15 9.5L12 9.5L12 18.5Z" fill="#0F0092"/>
</svg>
